<svg height="472pt" viewBox="0 0 472 472" width="472pt" xmlns="http://www.w3.org/2000/svg"><path d="m96 232h288v240h-288zm0 0" fill="#c49a6c"/><path d="m472 472h-136c0-17.671875 14.328125-32 32-32 .398438 0 .800781.078125 1.199219.078125-.765625-2.625-1.171875-5.34375-1.199219-8.078125 0-17.671875 14.328125-32 32-32s32 14.328125 32 32c22.089844 0 40 17.910156 40 40zm0 0" fill="#00ccb3"/><path d="m144 472h-48v-49.679688c3 2.65625 5.261719 6.046876 6.558594 9.839844.480468 0 .960937-.160156 1.441406-.160156 2.6875-.019531 5.371094.25 8 .800781 18.625 3.800781 32.003906 20.1875 32 39.199219zm0 0" fill="#a97c50"/><path d="m288 280v16h-48v-24h40c4.417969 0 8 3.582031 8 8zm0 0" fill="#d1d3d4"/><path d="m192 296h48v24h-40c-4.417969 0-8-3.582031-8-8zm0 0" fill="#d1d3d4"/><g fill="#e6e7e8"><path d="m312 360h48v48h-48zm0 0"/><path d="m120 360h48v48h-48zm0 0"/><path d="m288 296v16c0 4.417969-3.582031 8-8 8h-40v-24zm0 0"/><path d="m200 272h40v24h-48v-16c0-4.417969 3.582031-8 8-8zm0 0"/></g><path d="m72 208c12.664062 5.316406 26.265625 8.039062 40 8l-44 44c-6.628906 6.628906-17.371094 6.628906-24 0s-6.628906-17.371094 0-24zm0 0" fill="#ff6243"/><path d="m384 72v112l-64-64v-48zm0 0" fill="#c49a6c"/><path d="m384 72h-72c-4.417969 0-8-3.582031-8-8v-16c0-4.417969 3.582031-8 8-8h80c4.417969 0 8 3.582031 8 8v16c0 4.417969-3.582031 8-8 8zm0 0" fill="#ff6243"/><path d="m436 236c6.628906 6.628906 6.628906 17.371094 0 24s-17.371094 6.628906-24 0l-160.71875-160.71875c-2.992188-2.996094-7.050781-4.679688-11.28125-4.679688s-8.289062 1.683594-11.28125 4.679688l-12.71875 12.71875c0-13.730469-2.71875-27.324219-8-40l20.71875-20.71875c2.992188-2.996094 7.050781-4.679688 11.28125-4.679688s8.289062 1.683594 11.28125 4.679688zm0 0" fill="#ff6243"/><path d="m192 344h96v128h-96zm0 0" fill="#8b5e3c"/><path d="m112 216c57.4375 0 104-46.5625 104-104l12.71875-12.71875c2.992188-2.996094 7.050781-4.679688 11.28125-4.679688s8.289062 1.683594 11.28125 4.679688l132.71875 132.71875h-288zm0 0" fill="#ffc477"/><path d="m244.71875 99.28125c.960938-.988281 2.070312-1.824219 3.28125-2.480469-6.242188-3.65625-14.164062-2.636719-19.28125 2.480469l-132.71875 132.71875h16zm0 0" fill="#ffb655"/><path d="m95.695312 232.3125.617188 15.992188 15.375-16.609376zm0 0" fill="#a97c50"/><path d="m208 72c13.375 32.097656 9.820312 68.757812-9.464844 97.6875-19.289062 28.933594-51.761718 46.3125-86.535156 46.3125-13.734375.039062-27.335938-2.683594-40-8-43.398438-18.082031-69.269531-63.035156-63.101562-109.648438 6.171874-46.609374 42.84375-83.28125 89.453124-89.453124 46.613282-6.167969 91.566407 19.703124 109.648438 63.101562zm0 0" fill="#ffd422"/><path d="m232 112c0 57.4375-46.5625 104-104 104-2.800781 0-5.519531-.078125-8.238281-.320312 54.277343-4.03125 96.253906-49.25 96.238281-103.679688l12.71875-12.71875c.671875-.703125 1.421875-1.320312 2.242188-1.839844.710937 4.820313 1.058593 9.6875 1.039062 14.558594zm0 0" fill="#ffb655"/><path d="m120 360h16v48h-16zm0 0" fill="#d1d3d4"/><path d="m312 360h16v48h-16zm0 0" fill="#d1d3d4"/><path d="m192 344h16v128h-16zm0 0" fill="#754c29"/><path d="m128 472h-120c0-13.253906 10.746094-24 24-24 3.671875.023438 7.285156.898438 10.558594 2.558594-1.660156-3.273438-2.535156-6.886719-2.558594-10.558594-.035156-11.710938 8.40625-21.722656 19.953125-23.667969 11.546875-1.945312 22.804687 4.753907 26.605469 15.828125.480468 0 .960937-.160156 1.441406-.160156 2.6875-.019531 5.371094.25 8 .800781 18.625 3.800781 32.003906 20.1875 32 39.199219zm0 0" fill="#00ccb3"/><path d="m384 168v16l-64-64v-16zm0 0" fill="#a97c50"/><path d="m192 344h96v8h-96zm0 0" fill="#754c29"/><path d="m360 416h-48c-4.417969 0-8-3.582031-8-8v-48c0-4.417969 3.582031-8 8-8h48c4.417969 0 8 3.582031 8 8v48c0 4.417969-3.582031 8-8 8zm-40-16h32v-32h-32zm0 0" fill="#754c29"/><path d="m168 416h-48c-4.417969 0-8-3.582031-8-8v-48c0-4.417969 3.582031-8 8-8h48c4.417969 0 8 3.582031 8 8v48c0 4.417969-3.582031 8-8 8zm-40-16h32v-32h-32zm0 0" fill="#754c29"/><path d="m280 264h-80c-8.835938 0-16 7.164062-16 16v32c0 8.835938 7.164062 16 16 16h80c8.835938 0 16-7.164062 16-16v-32c0-8.835938-7.164062-16-16-16zm0 24h-32v-8h32zm-48-8v8h-32v-8zm-32 24h32v8h-32zm48 8v-8h32v8zm0 0" fill="#754c29"/><path d="m112 224c-61.855469 0-112-50.144531-112-112s50.144531-112 112-112 112 50.144531 112 112c-.066406 61.828125-50.171875 111.933594-112 112zm0-208c-53.019531 0-96 42.980469-96 96s42.980469 96 96 96 96-42.980469 96-96c-.058594-52.996094-43.003906-95.941406-96-96zm0 0" fill="#ee8700"/><path d="m144 88v-8c0-13.253906-10.746094-24-24-24v-16h-16v16c-13.253906 0-24 10.746094-24 24v16c0 13.253906 10.746094 24 24 24h16c4.417969 0 8 3.582031 8 8v16c0 4.417969-3.582031 8-8 8h-16c-4.417969 0-8-3.582031-8-8v-8h-16v8c0 13.253906 10.746094 24 24 24v16h16v-16c13.253906 0 24-10.746094 24-24v-16c0-13.253906-10.746094-24-24-24h-16c-4.417969 0-8-3.582031-8-8v-16c0-4.417969 3.582031-8 8-8h16c4.417969 0 8 3.582031 8 8v8zm0 0" fill="#ff6243"/><path d="m224 424h-16v-16h8v-16h-8v-16h16c4.417969 0 8 3.582031 8 8v32c0 4.417969-3.582031 8-8 8zm0 0" fill="#603913"/></svg>