<?xml version="1.0" encoding="iso-8859-1"?>
<!-- Generator: Adobe Illustrator 19.0.0, SVG Export Plug-In . SVG Version: 6.00 Build 0)  -->
<svg version="1.1" id="Capa_1" xmlns="http://www.w3.org/2000/svg" xmlns:xlink="http://www.w3.org/1999/xlink" x="0px" y="0px"
	 viewBox="0 0 480 480" style="enable-background:new 0 0 480 480;" xml:space="preserve">
<path style="fill:#D45B5B;" d="M230.44,115.062c0.048,0.2,0.112,0.384,0.152,0.584C230.552,115.454,230.488,115.262,230.44,115.062z
	"/>
<polygon style="fill:#E4D9B3;" points="216.08,185.014 176,247.998 208,247.998 208,197.71 "/>
<g>
	<path style="fill:#D45B5B;" d="M231.48,120.774c0.048,0.344,0.12,0.68,0.16,1.032C231.608,121.454,231.528,121.118,231.48,120.774z
		"/>
	<path style="fill:#D45B5B;" d="M228.824,109.534c0.016,0.04,0.024,0.072,0.04,0.112
		C228.856,109.606,228.84,109.574,228.824,109.534z"/>
</g>
<path style="fill:#B3D5E4;" d="M120.672,389.782c-5.656-3.776-12.296-5.784-19.096-5.784H72l16,40l-16,16l-16-16l16-40H42.424
	c-6.792,0-13.44,2.008-19.096,5.784C13.752,396.166,8,406.91,8,418.422v53.576h128v-53.576
	C136,406.91,130.248,396.166,120.672,389.782z"/>
<path style="fill:#FFFFFF;" d="M120,335.998l-40-24c-8,24-56,24-56,24c0,26.512,31.032,48,48,48S120,362.51,120,335.998z"/>
<path style="fill:#B3D5E4;" d="M80,311.998l40,24c0-26.512-8-56-48-56s-48,29.488-48,56C24,335.998,72,335.998,80,311.998z"/>
<polygon style="fill:#D45B5B;" points="72,439.998 88,423.998 72,383.998 56,423.998 "/>
<path style="fill:#B3D5E4;" d="M288.672,389.782c-5.656-3.776-12.296-5.784-19.096-5.784H240l16,40l-16,16l-16-16l16-40h-29.576
	c-6.792,0-13.44,2.008-19.096,5.784C181.752,396.166,176,406.91,176,418.422v53.576h128v-53.576
	C304,406.91,298.248,396.166,288.672,389.782z"/>
<path style="fill:#FFFFFF;" d="M288,335.998l-40-24c-8,24-56,24-56,24c0,26.512,31.032,48,48,48S288,362.51,288,335.998z"/>
<path style="fill:#B3D5E4;" d="M248,311.998l40,24c0-26.512-8-56-48-56s-48,29.488-48,56C192,335.998,240,335.998,248,311.998z"/>
<polygon style="fill:#D45B5B;" points="240,439.998 256,423.998 240,383.998 224,423.998 "/>
<g>
	<path style="fill:#B3D5E4;" d="M456.672,389.782c-5.656-3.776-12.296-5.784-19.096-5.784H408l16,40l-16,16l-16-16l16-40h-29.576
		c-6.792,0-13.44,2.008-19.096,5.784C349.752,396.166,344,406.91,344,418.422v53.576h128v-53.576
		C472,406.91,466.248,396.166,456.672,389.782z"/>
	<path style="fill:#B3D5E4;" d="M416,311.998l40,24c0-26.512-8-56-48-56s-48,29.488-48,56C360,335.998,408,335.998,416,311.998z"/>
</g>
<path style="fill:#FFFFFF;" d="M456,335.998l-40-24c-8,24-56,24-56,24c0,26.512,31.032,48,48,48S456,362.51,456,335.998z"/>
<polygon style="fill:#D45B5B;" points="408,439.998 424,423.998 408,383.998 392,423.998 "/>
<g>
	<path style="fill:#E4D9B3;" d="M280,103.998h-53.456c0.856,1.8,1.624,3.64,2.288,5.536c0.016,0.04,0.024,0.072,0.04,0.112
		c0.616,1.768,1.136,3.576,1.576,5.416c0.048,0.2,0.104,0.384,0.152,0.584c0.376,1.68,0.664,3.392,0.888,5.128
		c0.048,0.344,0.12,0.68,0.16,1.032c0.216,2.032,0.352,4.096,0.352,6.192v2.344c0,19.368-5.52,38.328-15.92,54.672L208,197.71
		v50.288h72v-112V103.998z M224,223.998h16H224z M224,199.998h16H224z M248,223.998h16H248z M248,199.998h16H248z M248,175.998h16
		H248z M248,151.998h16H248z M248,127.998h16H248z"/>
	<path style="fill:#E4D9B3;" d="M360,135.998h-80v112h24v-40h32v40h24V135.998z M288,183.998h16H288z M288,159.998h16H288z
		 M312,183.998h16H312z M312,159.998h16H312z M336,183.998h16H336z M336,159.998h16H336z"/>
	<rect x="304" y="207.998" style="fill:#E4D9B3;" width="32" height="40"/>
</g>
<g>
	<path style="fill:#D45B5B;" d="M232,130.342v-2.344c0-2.096-0.128-4.16-0.36-6.192c-0.04-0.352-0.112-0.688-0.16-1.032
		c-0.232-1.728-0.504-3.448-0.888-5.128c-0.048-0.2-0.104-0.384-0.152-0.584c-0.44-1.84-0.96-3.648-1.576-5.416
		c-0.016-0.04-0.024-0.072-0.04-0.112c-0.664-1.896-1.432-3.744-2.288-5.536l0,0c-9.224-19.384-29.208-32.664-52.264-31.976
		C143.632,72.942,120,99.686,120,130.342c0,19.368,5.52,38.328,15.92,54.672L176,247.998l40.08-62.984
		C226.48,168.678,232,149.71,232,130.342z M176,151.998c-13.256,0-24-10.744-24-24s10.744-24,24-24s24,10.744,24,24
		S189.256,151.998,176,151.998z"/>
	<path style="fill:#D45B5B;" d="M228.864,109.646c0.616,1.768,1.136,3.576,1.576,5.416
		C230.008,113.222,229.48,111.414,228.864,109.646z"/>
	<path style="fill:#D45B5B;" d="M231.64,121.806c0.232,2.032,0.36,4.096,0.36,6.192C232,125.902,231.864,123.838,231.64,121.806z"/>
	<path style="fill:#D45B5B;" d="M228.824,109.534c-0.664-1.896-1.432-3.744-2.288-5.536l0,0
		C227.392,105.798,228.16,107.646,228.824,109.534z"/>
	<path style="fill:#D45B5B;" d="M230.592,115.646c0.384,1.68,0.656,3.392,0.888,5.128
		C231.256,119.038,230.976,117.326,230.592,115.646z"/>
</g>
<circle style="fill:#E4D9B3;" cx="176" cy="127.998" r="24"/>
<g>
	<path style="fill:#23374E;" d="M125.112,383.126c-5.496-3.672-11.712-5.92-18.2-6.736C118.776,366.11,128,351.71,128,335.998
		c0-52.896-30.456-64-56-64s-56,11.104-56,64c0,15.712,9.224,30.112,21.096,40.392c-6.488,0.816-12.712,3.064-18.2,6.736
		C7.064,391.006,0,404.198,0,418.422v53.576c0,4.424,3.576,8,8,8h128c4.424,0,8-3.576,8-8v-53.576
		C144,404.198,136.936,391.006,125.112,383.126z M72,405.534l6.608,16.528L72,428.686l-6.608-6.616L72,405.534z M33.112,343.582
		c13.696-1.128,38.424-5.272,49.92-20.44l28.592,17.16C108.416,359.894,84.28,375.998,72,375.998
		C60.408,375.998,38.272,361.662,33.112,343.582z M72,287.998c22.704,0,35.176,10.736,38.776,33.136L84.12,305.142
		c-2.088-1.248-4.616-1.488-6.888-0.64c-2.28,0.832-4.048,2.672-4.816,4.968c-4.048,12.144-25.904,16.736-39.968,18.072
		C34.584,300.718,47.232,287.998,72,287.998z M128,463.998H16v-45.576c0-8.856,4.4-17.08,11.768-21.984
		c4.352-2.912,9.416-4.44,14.656-4.44h17.76L48.568,421.03c-1.184,2.968-0.488,6.36,1.776,8.624l16,16
		c1.56,1.56,3.608,2.344,5.656,2.344s4.096-0.784,5.656-2.344l16-16c2.264-2.264,2.96-5.656,1.776-8.624l-11.616-29.032h17.76
		c5.232,0,10.304,1.528,14.656,4.44C123.6,401.342,128,409.558,128,418.422V463.998z"/>
	<path style="fill:#23374E;" d="M293.112,383.126c-5.496-3.672-11.712-5.92-18.2-6.736C286.776,366.11,296,351.71,296,335.998
		c0-52.896-30.456-64-56-64s-56,11.104-56,64c0,15.712,9.224,30.112,21.096,40.392c-6.488,0.816-12.712,3.064-18.2,6.736
		C175.064,391.006,168,404.198,168,418.422v53.576c0,4.424,3.576,8,8,8h128c4.424,0,8-3.576,8-8v-53.576
		C312,404.198,304.936,391.006,293.112,383.126z M240,405.534l6.608,16.528L240,428.686l-6.608-6.616L240,405.534z M201.112,343.582
		c13.696-1.128,38.424-5.272,49.92-20.44l28.592,17.16c-3.208,19.592-27.344,35.696-39.624,35.696
		C228.408,375.998,206.272,361.662,201.112,343.582z M240,287.998c22.704,0,35.176,10.736,38.776,33.136l-26.656-15.992
		c-2.08-1.248-4.616-1.488-6.888-0.64c-2.28,0.832-4.048,2.672-4.816,4.968c-4.048,12.144-25.904,16.736-39.968,18.072
		C202.584,300.718,215.232,287.998,240,287.998z M296,463.998H184v-45.576c0-8.856,4.4-17.08,11.768-21.984
		c4.352-2.912,9.416-4.44,14.656-4.44h17.76l-11.616,29.032c-1.184,2.968-0.496,6.36,1.776,8.624l16,16
		c1.56,1.56,3.608,2.344,5.656,2.344s4.096-0.784,5.656-2.344l16-16c2.264-2.264,2.96-5.656,1.776-8.624l-11.616-29.032h17.76
		c5.232,0,10.304,1.528,14.656,4.44C291.6,401.342,296,409.558,296,418.422V463.998z"/>
	<path style="fill:#23374E;" d="M461.112,383.126c-5.496-3.672-11.712-5.92-18.2-6.736C454.776,366.11,464,351.71,464,335.998
		c0-52.896-30.456-64-56-64s-56,11.104-56,64c0,15.712,9.224,30.112,21.096,40.392c-6.488,0.816-12.712,3.064-18.2,6.736
		C343.064,391.006,336,404.198,336,418.422v53.576c0,4.424,3.576,8,8,8h128c4.424,0,8-3.576,8-8v-53.576
		C480,404.198,472.936,391.006,461.112,383.126z M408,405.534l6.608,16.528L408,428.686l-6.608-6.616L408,405.534z M369.112,343.582
		c13.696-1.128,38.424-5.272,49.92-20.44l28.592,17.16c-3.208,19.592-27.344,35.696-39.624,35.696
		C396.408,375.998,374.272,361.662,369.112,343.582z M408,287.998c22.704,0,35.176,10.736,38.776,33.136l-26.656-15.992
		c-2.08-1.248-4.616-1.488-6.888-0.64c-2.28,0.832-4.048,2.672-4.816,4.968c-4.048,12.144-25.904,16.736-39.968,18.072
		C370.584,300.718,383.232,287.998,408,287.998z M464,463.998H352v-45.576c0-8.856,4.4-17.08,11.768-21.984
		c4.352-2.912,9.416-4.44,14.656-4.44h17.76l-11.616,29.032c-1.184,2.968-0.496,6.36,1.776,8.624l16,16
		c1.56,1.56,3.608,2.344,5.656,2.344s4.096-0.784,5.656-2.344l16-16c2.264-2.264,2.96-5.656,1.776-8.624l-11.616-29.032h17.76
		c5.232,0,10.304,1.528,14.656,4.44C459.6,401.342,464,409.558,464,418.422V463.998z"/>
	<path style="fill:#23374E;" d="M152,255.998h56h72h24h32h24h16v-16h-8v-104c0-4.424-3.576-8-8-8h-72v-24c0-4.424-3.576-8-8-8h-48.6
		c-2.928-5.04-6.52-9.744-10.824-13.928c-12.52-12.16-28.928-18.44-46.528-18.048C139.832,65.054,112,94.814,112,130.35
		c0,20.92,5.936,41.312,17.168,58.96l32.256,50.688H152V255.998z M312,239.998v-24h16v24H312z M352,143.998v8h-16v16h16v8h-16v16h16
		v48h-8v-32c0-4.424-3.576-8-8-8h-32c-4.424,0-8,3.576-8,8v32h-8v-48h16v-16h-16v-8h16v-16h-16v-8H352z M237.952,111.998H272v24v104
		h-56v-39.96l6.832-10.728c1.408-2.208,2.728-4.456,3.96-6.744C235.456,166.558,240,148.654,240,130.35v-0.008v-2.344
		c0-2.544-0.192-5.048-0.48-7.536c-0.064-0.552-0.168-1.096-0.248-1.648c-0.304-2.112-0.704-4.2-1.216-6.256
		C238.016,112.374,238,112.182,237.952,111.998z M128,130.35c0-26.984,20.864-49.56,46.52-50.328
		c0.496-0.016,0.984-0.024,1.48-0.024c12.568,0,24.392,4.784,33.432,13.552c4.144,4.024,7.416,8.68,9.84,13.72
		c0.024,0.056,0.032,0.112,0.056,0.16c1.544,3.24,2.704,6.576,3.48,9.992c0.008,0.032,0.016,0.064,0.024,0.096
		c0.344,1.528,0.592,3.064,0.784,4.616c0.024,0.224,0.08,0.448,0.104,0.672c0.176,1.72,0.28,3.448,0.28,5.192v2.344
		c0,15.64-3.88,30.936-11.288,44.616c-1.056,1.952-2.184,3.872-3.384,5.76l-8.08,12.696v0.008L176,233.102l-33.328-52.384
		C133.072,165.638,128,148.222,128,130.35z M200,225.182v14.816h-9.424L200,225.182z"/>
	<rect x="248" y="119.998" style="fill:#23374E;" width="16" height="16"/>
	<rect x="312" y="151.998" style="fill:#23374E;" width="16" height="16"/>
	<rect x="312" y="175.998" style="fill:#23374E;" width="16" height="16"/>
	<rect x="248" y="143.998" style="fill:#23374E;" width="16" height="16"/>
	<rect x="248" y="167.998" style="fill:#23374E;" width="16" height="16"/>
	<rect x="224" y="191.998" style="fill:#23374E;" width="16" height="16"/>
	<rect x="248" y="191.998" style="fill:#23374E;" width="16" height="16"/>
	<rect x="224" y="215.998" style="fill:#23374E;" width="16" height="16"/>
	<rect x="248" y="215.998" style="fill:#23374E;" width="16" height="16"/>
	<path style="fill:#23374E;" d="M33.44,183.406l15.888,1.872c0.576-4.928,1.376-9.936,2.352-14.88l-15.704-3.096
		C34.92,172.646,34.072,178.062,33.44,183.406z"/>
	<path style="fill:#23374E;" d="M51.104,120.814l14.512,6.72c2.12-4.576,4.432-9.096,6.856-13.408l-13.936-7.856
		C55.896,110.95,53.392,115.846,51.104,120.814z"/>
	<path style="fill:#23374E;" d="M109.68,66.99L98.824,55.238c-3.976,3.672-7.856,7.552-11.536,11.536L99.04,77.63
		C102.432,73.966,106.016,70.382,109.68,66.99z"/>
	<path style="fill:#23374E;" d="M39.8,151.422l15.392,4.344c1.352-4.776,2.92-9.6,4.672-14.336l-15.016-5.536
		C42.952,141.014,41.256,146.238,39.8,151.422z"/>
	<path style="fill:#23374E;" d="M67.08,92.374l13.296,8.904c2.776-4.152,5.76-8.248,8.864-12.176l-12.544-9.92
		C73.328,83.438,70.096,87.878,67.08,92.374z"/>
	<path style="fill:#23374E;" d="M390.576,88.87c3.096,3.896,6.088,7.992,8.896,12.168l13.264-8.936
		c-3.04-4.512-6.272-8.944-9.616-13.168L390.576,88.87z"/>
	<path style="fill:#23374E;" d="M355.32,34.862l-8.872,13.312c4.128,2.752,8.224,5.728,12.192,8.848l9.888-12.576
		C364.232,41.07,359.792,37.838,355.32,34.862z"/>
	<path style="fill:#23374E;" d="M326.848,18.942L320.16,33.47c4.52,2.088,9.048,4.392,13.44,6.832l7.8-13.968
		C336.648,23.694,331.76,21.198,326.848,18.942z"/>
	<path style="fill:#23374E;" d="M407.376,113.846c2.456,4.344,4.768,8.848,6.88,13.4l14.504-6.752
		c-2.288-4.92-4.792-9.8-7.448-14.504L407.376,113.846z"/>
	<path style="fill:#23374E;" d="M296.224,7.694l-4.296,15.408c4.808,1.344,9.616,2.896,14.32,4.624l5.512-15.016
		C306.672,10.83,301.448,9.15,296.224,7.694z"/>
	<path style="fill:#23374E;" d="M370.112,66.806c3.704,3.424,7.296,7,10.664,10.632l11.736-10.872
		c-3.648-3.936-7.536-7.816-11.552-11.52L370.112,66.806z"/>
	<path style="fill:#23374E;" d="M446.52,183.046c-0.648-5.392-1.512-10.816-2.576-16.128l-15.688,3.16
		c0.984,4.888,1.784,9.888,2.376,14.856L446.52,183.046z"/>
	<path style="fill:#23374E;" d="M420.048,141.126c1.752,4.712,3.328,9.528,4.688,14.32l15.392-4.376
		c-1.48-5.192-3.184-10.416-5.08-15.504L420.048,141.126z"/>
	<path style="fill:#23374E;" d="M152.84,19.086c-4.904,2.264-9.8,4.768-14.528,7.424l7.84,13.952
		c4.368-2.456,8.872-4.768,13.408-6.856L152.84,19.086z"/>
	<path style="fill:#23374E;" d="M264.232,1.398l-1.84,15.888c4.92,0.568,9.928,1.352,14.888,2.32l3.064-15.704
		C274.984,2.854,269.56,2.014,264.232,1.398z"/>
	<path style="fill:#23374E;" d="M133.328,48.334l-8.92-13.28c-4.528,3.048-8.968,6.272-13.176,9.592l9.904,12.56
		C125.024,54.142,129.136,51.158,133.328,48.334z"/>
	<path style="fill:#23374E;" d="M183.416,7.798c-5.248,1.488-10.472,3.176-15.504,5.048l5.544,15
		c4.648-1.712,9.472-3.28,14.32-4.656L183.416,7.798z"/>
	<path style="fill:#23374E;" d="M248,0.158c-5.416-0.216-10.904-0.2-16.32,0.008l0.608,15.984c4.992-0.176,10.08-0.192,15.072-0.008
		L248,0.158z"/>
	<path style="fill:#23374E;" d="M215.416,1.446c-5.344,0.632-10.768,1.488-16.112,2.536l3.096,15.704
		c4.944-0.976,9.952-1.776,14.888-2.352L215.416,1.446z"/>
	<path style="fill:#23374E;" d="M208,127.998c0-17.648-14.352-32-32-32s-32,14.352-32,32s14.352,32,32,32S208,145.646,208,127.998z
		 M160,127.998c0-8.824,7.176-16,16-16s16,7.176,16,16s-7.176,16-16,16S160,136.822,160,127.998z"/>
</g>
<g>
</g>
<g>
</g>
<g>
</g>
<g>
</g>
<g>
</g>
<g>
</g>
<g>
</g>
<g>
</g>
<g>
</g>
<g>
</g>
<g>
</g>
<g>
</g>
<g>
</g>
<g>
</g>
<g>
</g>
</svg>
